<svg width="221" height="256" viewBox="0 0 221 256" fill="none" xmlns="http://www.w3.org/2000/svg">
<path d="M110.5 241.241C171.251 241.241 220.5 191.885 220.5 131C220.5 70.1158 171.251 20.7593 110.5 20.7593C49.7487 20.7593 0.5 70.1158 0.5 131C0.5 191.885 49.7487 241.241 110.5 241.241Z" fill="#B8C3D5"/>
<g filter="url(#filter0_d_599_8732)">
<path d="M173.567 83.9644H47.4334C43.3833 83.9644 40.1001 87.2548 40.1001 91.3138V245.651C40.1001 249.71 43.3833 253 47.4334 253H173.567C177.617 253 180.9 249.71 180.9 245.651V91.3138C180.9 87.2548 177.617 83.9644 173.567 83.9644Z" fill="white"/>
</g>
<path d="M95.8334 106.012H57.7C55.27 106.012 53.3 107.986 53.3 110.422C53.3 112.857 55.27 114.831 57.7 114.831H95.8334C98.2634 114.831 100.233 112.857 100.233 110.422C100.233 107.986 98.2634 106.012 95.8334 106.012Z" fill="#B4DAFF"/>
<path d="M122.233 125.121H57.7C55.27 125.121 53.3 127.095 53.3 129.531C53.3 131.966 55.27 133.94 57.7 133.94H122.233C124.663 133.94 126.633 131.966 126.633 129.531C126.633 127.095 124.663 125.121 122.233 125.121Z" fill="#DFEAFB"/>
<path d="M95.8334 145.699H57.7C55.27 145.699 53.3 147.673 53.3 150.108C53.3 152.544 55.27 154.518 57.7 154.518H95.8334C98.2634 154.518 100.233 152.544 100.233 150.108C100.233 147.673 98.2634 145.699 95.8334 145.699Z" fill="#B4DAFF"/>
<path d="M122.233 164.807H57.7C55.27 164.807 53.3 166.781 53.3 169.217C53.3 171.652 55.27 173.626 57.7 173.626H122.233C124.663 173.626 126.633 171.652 126.633 169.217C126.633 166.781 124.663 164.807 122.233 164.807Z" fill="#DFEAFB"/>
<path d="M95.8334 185.386H57.7C55.27 185.386 53.3 187.36 53.3 189.795C53.3 192.231 55.27 194.205 57.7 194.205H95.8334C98.2634 194.205 100.233 192.231 100.233 189.795C100.233 187.36 98.2634 185.386 95.8334 185.386Z" fill="#B4DAFF"/>
<path d="M122.233 204.494H57.7C55.27 204.494 53.3 206.468 53.3 208.904C53.3 211.339 55.27 213.313 57.7 213.313H122.233C124.663 213.313 126.633 211.339 126.633 208.904C126.633 206.468 124.663 204.494 122.233 204.494Z" fill="#DFEAFB"/>
<g filter="url(#filter1_d_599_8732)">
<path d="M173.567 9H47.4334C43.3833 9 40.1001 12.2904 40.1001 16.3494V60.4458C40.1001 64.5047 43.3833 67.7952 47.4334 67.7952H173.567C177.617 67.7952 180.9 64.5047 180.9 60.4458V16.3494C180.9 12.2904 177.617 9 173.567 9Z" fill="#003366"/>
</g>
<path d="M95.8334 25.1689H57.7C55.27 25.1689 53.3 27.1432 53.3 29.5786C53.3 32.014 55.27 33.9882 57.7 33.9882H95.8334C98.2634 33.9882 100.233 32.014 100.233 29.5786C100.233 27.1432 98.2634 25.1689 95.8334 25.1689Z" fill="#B4DAFF"/>
<path d="M122.233 44.2769H57.7C55.27 44.2769 53.3 46.2511 53.3 48.6865C53.3 51.1219 55.27 53.0961 57.7 53.0961H122.233C124.663 53.0961 126.633 51.1219 126.633 48.6865C126.633 46.2511 124.663 44.2769 122.233 44.2769Z" fill="white"/>
<defs>
<filter id="filter0_d_599_8732" x="34.1001" y="74.9644" width="152.8" height="181.036" filterUnits="userSpaceOnUse" color-interpolation-filters="sRGB">
<feFlood flood-opacity="0" result="BackgroundImageFix"/>
<feColorMatrix in="SourceAlpha" type="matrix" values="0 0 0 0 0 0 0 0 0 0 0 0 0 0 0 0 0 0 127 0" result="hardAlpha"/>
<feOffset dy="-3"/>
<feGaussianBlur stdDeviation="3"/>
<feColorMatrix type="matrix" values="0 0 0 0 0.788235 0 0 0 0 0.803922 0 0 0 0 0.85098 0 0 0 0.349 0"/>
<feBlend mode="normal" in2="BackgroundImageFix" result="effect1_dropShadow_599_8732"/>
<feBlend mode="normal" in="SourceGraphic" in2="effect1_dropShadow_599_8732" result="shape"/>
</filter>
<filter id="filter1_d_599_8732" x="34.1001" y="0" width="152.8" height="70.7949" filterUnits="userSpaceOnUse" color-interpolation-filters="sRGB">
<feFlood flood-opacity="0" result="BackgroundImageFix"/>
<feColorMatrix in="SourceAlpha" type="matrix" values="0 0 0 0 0 0 0 0 0 0 0 0 0 0 0 0 0 0 127 0" result="hardAlpha"/>
<feOffset dy="-3"/>
<feGaussianBlur stdDeviation="3"/>
<feColorMatrix type="matrix" values="0 0 0 0 0.788235 0 0 0 0 0.803922 0 0 0 0 0.85098 0 0 0 0.349 0"/>
<feBlend mode="normal" in2="BackgroundImageFix" result="effect1_dropShadow_599_8732"/>
<feBlend mode="normal" in="SourceGraphic" in2="effect1_dropShadow_599_8732" result="shape"/>
</filter>
</defs>
</svg>
